<?xml version="1.0" encoding="UTF-8"?>
<svg version="1.1" xmlns="http://www.w3.org/2000/svg" width="266" height="246">
<path d="M0 0 C1.93951538 0.11758667 1.93951538 0.11758667 3.91821289 0.23754883 C24.9344186 1.67219131 41.91894237 6.22803333 56.96484375 21.5 C68.28190965 34.70686386 72.72427634 50.30317787 73.8125 67.375 C73.93093262 69.1839978 73.93093262 69.1839978 74.05175781 71.02954102 C79.56686042 168.57642615 79.56686042 168.57642615 57.25 194.4375 C43.88398909 208.52477963 27.96532317 214.93895965 8.75 216.3125 C7.65631104 216.39145508 6.56262207 216.47041016 5.43579102 216.55175781 C-7.84118173 217.35332088 -21.1406379 217.34363463 -34.4375 217.375 C-35.57129089 217.38026703 -36.70508179 217.38553406 -37.87322998 217.39096069 C-50.38115039 217.43576646 -62.8293328 217.18573993 -75.30859375 216.296875 C-76.34403824 216.22776917 -77.37948273 216.15866333 -78.44630432 216.08746338 C-93.05838189 214.92103405 -105.57053306 210.82525112 -117.375 202.125 C-118.37853516 201.39023437 -118.37853516 201.39023437 -119.40234375 200.640625 C-133.37199686 189.46490251 -139.23746403 173.36865193 -141.375 156.125 C-141.8560989 151.19262814 -142.20052997 146.25899316 -142.5 141.3125 C-142.54169312 140.62858185 -142.58338623 139.9446637 -142.62634277 139.24002075 C-143.89545239 117.95979386 -143.84283876 96.71306107 -142.5 75.4375 C-142.42168945 74.19154053 -142.34337891 72.94558105 -142.26269531 71.66186523 C-140.75021969 50.23367845 -136.29219353 31.78405641 -120.234375 16.48046875 C-105.62072787 4.44217746 -89.36073616 1.54962079 -70.98046875 0.30419922 C-68.77596287 0.15257747 -66.57631421 -0.02364713 -64.375 -0.21484375 C-43.02473803 -1.83835325 -21.35508235 -1.32262877 0 0 Z M-63.375 63.125 C-63.66609887 66.04773947 -63.77436272 68.75655053 -63.74731445 71.6796875 C-63.75096512 72.55312805 -63.75461578 73.4265686 -63.75837708 74.32647705 C-63.76649267 77.21784826 -63.75286408 80.10866082 -63.73828125 83 C-63.73776276 85.00634765 -63.73828002 87.01269582 -63.73979187 89.01904297 C-63.7397021 93.225663 -63.72926313 97.43209156 -63.71118164 101.63867188 C-63.68849438 107.03600096 -63.6879499 112.43305017 -63.69469929 117.83041382 C-63.69803771 121.97390234 -63.69141155 126.11732683 -63.68157005 130.26080322 C-63.67771559 132.25115626 -63.67657086 134.24151642 -63.6781559 136.23187256 C-63.67852596 139.01149106 -63.6659228 141.79074818 -63.6496582 144.5703125 C-63.65213562 145.39638 -63.65461304 146.22244751 -63.65716553 147.07354736 C-63.62094444 150.94402967 -63.57196262 152.82955606 -61.375 156.125 C-59.28358349 156.70486233 -59.28358349 156.70486233 -56.8605957 156.79980469 C-55.96176666 156.8640564 -55.06293762 156.92830811 -54.13687134 156.99450684 C-49.95775436 157.19196216 -45.78920235 157.30669066 -41.60546875 157.328125 C-40.72143875 157.33382507 -39.83740875 157.33952515 -38.92658997 157.34539795 C-37.07712981 157.35476194 -35.22765361 157.36134721 -33.37817383 157.36523438 C-30.55195726 157.37503657 -27.72644025 157.4061783 -24.90039062 157.4375 C-23.09375427 157.44402277 -21.28711278 157.44927608 -19.48046875 157.453125 C-18.64082077 157.4654718 -17.80117279 157.4778186 -16.93608093 157.49053955 C-12.3185994 157.47295825 -9.02396167 157.29085971 -5.375 154.125 C-4.31572523 152.21249284 -4.31572523 152.21249284 -4.375 150.125 C-5.7783466 147.45804682 -7.21087829 145.05721715 -8.875 142.5625 C-9.33116699 141.85738281 -9.78733398 141.15226562 -10.25732422 140.42578125 C-11.18187374 138.99790554 -12.11137909 137.57322609 -13.04589844 136.15185547 C-14.89649333 133.32973225 -16.69706587 130.47779084 -18.5 127.625 C-19.45763681 126.12455523 -20.41566429 124.62435912 -21.375 123.125 C-24.90947775 124.30315925 -25.22899457 125.04507327 -27.1171875 128.125 C-27.62636719 128.929375 -28.13554687 129.73375 -28.66015625 130.5625 C-29.71788646 132.26734279 -30.77000449 133.97568066 -31.81640625 135.6875 C-32.32816406 136.491875 -32.83992188 137.29625 -33.3671875 138.125 C-33.82464355 138.8675 -34.28209961 139.61 -34.75341797 140.375 C-36.375 142.125 -36.375 142.125 -38.81298828 143.0625 C-41.375 143.125 -41.375 143.125 -43.50476074 142.01539612 C-46.13833751 139.35343547 -45.87022801 137.64452782 -45.86083984 133.94116211 C-45.8669931 132.66651596 -45.87314636 131.39186981 -45.87948608 130.07859802 C-45.86569115 128.68650593 -45.85115725 127.29442099 -45.8359375 125.90234375 C-45.83355315 124.47652859 -45.83264774 123.05071025 -45.8331604 121.62489319 C-45.83003275 118.63799346 -45.81346954 115.65157388 -45.78662109 112.66479492 C-45.75261004 108.83223796 -45.74499336 105.00020787 -45.74651146 101.16751766 C-45.74596822 98.2241562 -45.73500908 95.2809104 -45.72050858 92.33758736 C-45.71413572 90.92416827 -45.71020054 89.51073607 -45.70872116 88.09730339 C-45.70439526 86.12463558 -45.68532252 84.15201659 -45.66552734 82.17944336 C-45.65790375 81.05598007 -45.65028015 79.93251678 -45.64242554 78.77500916 C-45.375 76.125 -45.375 76.125 -43.375 74.125 C-40.5 73.75 -40.5 73.75 -37.375 74.125 C-33.30062538 77.58741322 -30.89236148 81.94172919 -28.15625 86.46875 C-26.43904148 89.02949955 -24.62686827 91.03115757 -22.375 93.125 C-17.59830658 86.82723661 -13.07516463 80.36477869 -8.75 73.75 C-8.05704834 72.73389648 -8.05704834 72.73389648 -7.35009766 71.69726562 C-5.89456562 69.5196757 -5.89456562 69.5196757 -4.375 66.125 C-4.97795418 63.4790952 -5.46648025 62.03351975 -7.375 60.125 C-9.0159712 60.01588802 -10.66160188 59.97593787 -12.30615234 59.96386719 C-13.35749359 59.95425964 -14.40883484 59.9446521 -15.49203491 59.93475342 C-16.63677277 59.93050354 -17.78151062 59.92625366 -18.9609375 59.921875 C-20.12879791 59.91617493 -21.29665833 59.91047485 -22.49990845 59.90460205 C-24.9764922 59.89513485 -27.45308864 59.88861128 -29.9296875 59.88476562 C-33.72678518 59.87505934 -37.52334201 59.84405104 -41.3203125 59.8125 C-43.72135094 59.80597049 -46.12239326 59.80071981 -48.5234375 59.796875 C-49.66412689 59.7845282 -50.80481628 59.7721814 -51.98007202 59.75946045 C-53.03771759 59.76246155 -54.09536316 59.76546265 -55.18505859 59.76855469 C-56.11691986 59.76490906 -57.04878113 59.76126343 -58.00888062 59.75750732 C-60.88114378 60.20361147 -61.58002334 60.89109053 -63.375 63.125 Z M-23.375 96.125 C-24.66318776 97.78927936 -25.88066226 99.50858879 -27.0625 101.25 C-27.72636719 102.20132813 -28.39023438 103.15265625 -29.07421875 104.1328125 C-30.69409571 107.0791323 -30.69409571 107.0791323 -29.74609375 110.25 C-28.56544919 112.72565356 -27.4037792 114.82397474 -25.75 117 C-24.96625 118.03125 -24.1825 119.0625 -23.375 120.125 C-20.11962981 117.04559576 -17.22880546 114.2445677 -15.375 110.125 C-15.7833211 106.15374801 -17.12651129 103.57172763 -19.375 100.3125 C-19.91125 99.52230469 -20.4475 98.73210937 -21 97.91796875 C-21.45375 97.32628906 -21.9075 96.73460938 -22.375 96.125 C-22.705 96.125 -23.035 96.125 -23.375 96.125 Z " fill="#498FB9" transform="translate(166.375,14.875)"/>
<path d="M0 0 C0.33 0.66 0.66 1.32 1 2 C0.34 2 -0.32 2 -1 2 C-1.02313322 13.96076485 -1.04092011 25.92152442 -1.05181217 37.88230705 C-1.05703885 43.43570621 -1.06413261 48.9890901 -1.07543945 54.54248047 C-1.08627595 59.89815547 -1.09227846 65.25381577 -1.09487724 70.60950089 C-1.09673011 72.65650794 -1.10034809 74.70351416 -1.10573006 76.75051498 C-1.11295057 79.6095735 -1.11399051 82.4685706 -1.11352539 85.32763672 C-1.11712067 86.18071411 -1.12071594 87.0337915 -1.12442017 87.91271973 C-1.23063695 92.08955104 -1.23063695 92.08955104 0 96 C6.42039891 97.35046985 13.26660318 97.15923085 19.8046875 97.16796875 C20.69108917 97.17129715 21.57749084 97.17462555 22.49075317 97.17805481 C24.34441617 97.18307377 26.19808803 97.18546471 28.05175781 97.18530273 C30.88881981 97.18751076 33.72550544 97.2057776 36.5625 97.22460938 C38.37239451 97.22754008 40.18229086 97.22952703 41.9921875 97.23046875 C43.2594014 97.24124702 43.2594014 97.24124702 44.55221558 97.25224304 C45.34048737 97.24916641 46.12875916 97.24608978 46.94091797 97.24291992 C47.63023407 97.24434494 48.31955017 97.24576996 49.02975464 97.24723816 C51.3869358 96.95144498 52.98050482 96.23789258 55 95 C55.99090174 93.12722258 55.99090174 93.12722258 56 91 C55.33305079 89.15588254 55.33305079 89.15588254 54.12109375 87.42578125 C53.69683105 86.7620752 53.27256836 86.09836914 52.83544922 85.41455078 C52.37412598 84.72087402 51.91280273 84.02719727 51.4375 83.3125 C50.97875488 82.60077637 50.52000977 81.88905273 50.04736328 81.15576172 C47.09270802 76.58909813 44.07668188 72.06000336 40.9609375 67.6015625 C40 66 40 66 40 64 C36.34490906 66.89532484 33.38416413 69.38985696 30.875 73.375 C30.25625 74.24125 29.6375 75.1075 29 76 C26.25 76.375 26.25 76.375 24 76 C24 76.99 24 77.98 24 79 C24 79.66 24 80.32 24 81 C21 82 21 82 18.8125 81.0625 C18.214375 80.711875 17.61625 80.36125 17 80 C16.95371272 71.82037612 16.91814928 63.64080673 16.89637566 55.46108437 C16.88592679 51.66313688 16.87174764 47.86527882 16.84912109 44.06738281 C16.82743179 40.40398654 16.81543969 36.74067643 16.81024551 33.07722092 C16.80654269 31.67773456 16.79931223 30.27825305 16.78853989 28.87880325 C16.77407775 26.92266669 16.77318353 24.96644391 16.77294922 23.01025391 C16.768508 21.8955069 16.76406677 20.78075989 16.75949097 19.63223267 C17 17 17 17 19 15 C22.125 15.375 22.125 15.375 25 16 C25.66 17.98 26.32 19.96 27 22 C27.66 22 28.32 22 29 22 C31.74778884 25.58045212 33.46968862 28.4923533 34 33 C34.99 33.33 35.98 33.66 37 34 C36.38197575 37.15332829 35.30241918 39.29150672 33.5 41.9375 C31.54498444 44.95171707 30.34174699 47.35469882 30 51 C30.99 51.33 31.98 51.66 33 52 C34.38671875 53.84765625 34.38671875 53.84765625 35.6875 56.0625 C36.12449219 56.79597656 36.56148437 57.52945313 37.01171875 58.28515625 C37.33785156 58.85105469 37.66398437 59.41695312 38 60 C39.65 58.68 41.3 57.36 43 56 C42.7525 57.175625 42.7525 57.175625 42.5 58.375 C41.53457739 63.44346869 43.47407204 66.67084013 46 71 C47.31023981 72.84990825 48.64511642 74.6825349 50 76.5 C53.76841721 81.57611422 57.34600746 86.40304105 58.5 92.75 C57.81721267 95.82254299 56.43068901 97.06974696 54 99 C53.34 99 52.68 99 52 99 C51.67 99.66 51.34 100.32 51 101 C49.68 101 48.36 101 47 101 C45.52871889 101.00934981 44.05744583 101.02002472 42.58618164 101.03173828 C37.78216989 101.06761188 32.9781782 101.09080995 28.17407227 101.10986328 C26.10146055 101.11994582 24.02886314 101.13361161 21.95629883 101.15087891 C18.961716 101.17515738 15.96731956 101.1864854 12.97265625 101.1953125 C11.58651878 101.21079636 11.58651878 101.21079636 10.17237854 101.22659302 C1.79472278 101.22805165 1.79472278 101.22805165 -2 99 C-4.60144785 95.09782822 -4.29539439 91.80539678 -4.29052734 87.27758789 C-4.29724457 86.38624649 -4.30396179 85.49490509 -4.31088257 84.57655334 C-4.32990639 81.62519788 -4.33378885 78.67406924 -4.3359375 75.72265625 C-4.34236193 73.67386277 -4.34909002 71.62507022 -4.35610962 69.57627869 C-4.36809304 65.27975334 -4.3717893 60.98330846 -4.37060547 56.68676758 C-4.37040212 51.17730619 -4.39771627 45.6683597 -4.43214989 40.15902042 C-4.45436998 35.92713544 -4.45844453 31.69537539 -4.45738602 27.46343803 C-4.4597489 25.43202373 -4.46861086 23.40060634 -4.48405075 21.36924934 C-4.50361359 18.52973311 -4.49791118 15.69134038 -4.48583984 12.85180664 C-4.49707886 12.01063293 -4.50831787 11.16945923 -4.51989746 10.30279541 C-4.47899693 6.52298217 -4.36256297 4.45593257 -1.96963501 1.44676208 C-1.31965546 0.9693306 -0.6696759 0.49189911 0 0 Z " fill="#498FB9" transform="translate(105,74)"/>
<path d="M0 0 C0.33 0 0.66 0 1 0 C1.33 5.28 1.66 10.56 2 16 C2.99 16.33 3.98 16.66 5 17 C5.33 17.99 5.66 18.98 6 20 C5.34 20 4.68 20 4 20 C3.94548286 22.04136395 3.90697515 24.08315856 3.875 26.125 C3.84019531 27.83042969 3.84019531 27.83042969 3.8046875 29.5703125 C4.00348556 33.06120651 4.89091368 35.71002126 6 39 C5.67 39.99 5.34 40.98 5 42 C5.99 42 6.98 42 8 42 C7.79375 42.53625 7.5875 43.0725 7.375 43.625 C6.77060486 47.45283589 8.30277757 50.60555514 10 54 C10.66 54 11.32 54 12 54 C12.30292969 54.83144531 12.60585938 55.66289062 12.91796875 56.51953125 C13.33691406 57.60621094 13.75585938 58.69289062 14.1875 59.8125 C14.59355469 60.89144531 14.99960937 61.97039062 15.41796875 63.08203125 C17.21195407 66.39093751 18.61096524 67.45952965 22 69 C22.66 69 23.32 69 24 69 C24 70.65 24 72.3 24 74 C24.721875 74.28875 25.44375 74.5775 26.1875 74.875 C28.79166667 75.91666667 31.39583333 76.95833333 34 78 C34 78.66 34 79.32 34 80 C34.763125 80.268125 35.52625 80.53625 36.3125 80.8125 C39 82 39 82 40.5 83.625 C41.99266652 85.27980035 41.99266652 85.27980035 44.6875 85.1875 C45.450625 85.125625 46.21375 85.06375 47 85 C47 85.66 47 86.32 47 87 C48.65 87.33 50.3 87.66 52 88 C52.33 87.34 52.66 86.68 53 86 C53 86.66 53 87.32 53 88 C62.01824887 89.06996173 70.93664124 89.10234659 80 89 C80.495 87.515 80.495 87.515 81 86 C82.485 86.99 82.485 86.99 84 88 C84.99 87.67 85.98 87.34 87 87 C87.33 88.32 87.66 89.64 88 91 C93.62335936 91.04946121 99.2465919 91.08574868 104.87011719 91.10986328 C106.78290004 91.1199169 108.69566755 91.13356173 110.60839844 91.15087891 C113.35876252 91.17515522 116.10892328 91.1864895 118.859375 91.1953125 C119.71368103 91.20563507 120.56798706 91.21595764 121.44818115 91.22659302 C122.24870911 91.22674408 123.04923706 91.22689514 123.87402344 91.22705078 C124.57573669 91.231492 125.27744995 91.23593323 126.00042725 91.24050903 C128.35108284 90.95777168 129.93884045 90.13807039 132 89 C134.42038603 88.14115334 135.68894326 87.92977908 138.21484375 88.5 C141.47351583 89.08500705 144.32652307 88.94152064 147.625 88.6875 C148.75164062 88.60886719 149.87828125 88.53023438 151.0390625 88.44921875 C154.17881963 88.18673331 154.17881963 88.18673331 157 86 C157.5775 86.165 158.155 86.33 158.75 86.5 C162.13371649 87.251937 164.71970864 86.00076686 168 85 C170.32787927 84.63049535 172.66045145 84.28647533 175 84 C175.2475 83.195625 175.495 82.39125 175.75 81.5625 C177 79 177 79 178.875 78.125 C181.14498955 77.9914712 182.8435223 78.30684645 185 79 C185.66 77.35 186.32 75.7 187 74 C188.65 74 190.3 74 192 74 C192.66 72.35 193.32 70.7 194 69 C197.465 68.505 197.465 68.505 201 68 C189.74551659 82.14024838 174.68522804 89.58770413 156.8203125 91.73046875 C154.92339902 91.90074154 153.02469309 92.05170707 151.125 92.1875 C150.03131104 92.26645508 148.93762207 92.34541016 147.81079102 92.42675781 C134.53381827 93.22832088 121.2343621 93.21863463 107.9375 93.25 C106.80370911 93.25526703 105.66991821 93.26053406 104.50177002 93.26596069 C91.99384961 93.31076646 79.5456672 93.06073993 67.06640625 92.171875 C66.03096176 92.10276917 64.99551727 92.03366333 63.92869568 91.96246338 C49.31661811 90.79603405 36.80446694 86.70025112 25 78 C24.33097656 77.51015625 23.66195312 77.0203125 22.97265625 76.515625 C10.28430443 66.36494354 3.34706758 51.15824055 1.3359375 35.296875 C0.13377995 23.49895675 -0.1208755 11.84579946 0 0 Z M34 77 C37 78 37 78 37 78 Z " fill="#4E719C" transform="translate(24,139)"/>
<path d="M0 0 C0.33 0.66 0.66 1.32 1 2 C0.34 2 -0.32 2 -1 2 C-1.02313322 13.96076485 -1.04092011 25.92152442 -1.05181217 37.88230705 C-1.05703885 43.43570621 -1.06413261 48.9890901 -1.07543945 54.54248047 C-1.08627595 59.89815547 -1.09227846 65.25381577 -1.09487724 70.60950089 C-1.09673011 72.65650794 -1.10034809 74.70351416 -1.10573006 76.75051498 C-1.11295057 79.6095735 -1.11399051 82.4685706 -1.11352539 85.32763672 C-1.11712067 86.18071411 -1.12071594 87.0337915 -1.12442017 87.91271973 C-1.23063695 92.08955104 -1.23063695 92.08955104 0 96 C6.42039891 97.35046985 13.26660318 97.15923085 19.8046875 97.16796875 C20.69108917 97.17129715 21.57749084 97.17462555 22.49075317 97.17805481 C24.34441617 97.18307377 26.19808803 97.18546471 28.05175781 97.18530273 C30.88881981 97.18751076 33.72550544 97.2057776 36.5625 97.22460938 C38.37239451 97.22754008 40.18229086 97.22952703 41.9921875 97.23046875 C43.2594014 97.24124702 43.2594014 97.24124702 44.55221558 97.25224304 C45.34048737 97.24916641 46.12875916 97.24608978 46.94091797 97.24291992 C47.63023407 97.24434494 48.31955017 97.24576996 49.02975464 97.24723816 C51.3869358 96.95144498 52.98050482 96.23789258 55 95 C55.99090174 93.12722258 55.99090174 93.12722258 56 91 C55.33305079 89.15588254 55.33305079 89.15588254 54.12109375 87.42578125 C53.69683105 86.7620752 53.27256836 86.09836914 52.83544922 85.41455078 C52.37412598 84.72087402 51.91280273 84.02719727 51.4375 83.3125 C50.97875488 82.60077637 50.52000977 81.88905273 50.04736328 81.15576172 C47.09270802 76.58909813 44.07668188 72.06000336 40.9609375 67.6015625 C40 66 40 66 40 64 C38.35 65.32 36.7 66.64 35 68 C35.226875 66.906875 35.45375 65.81375 35.6875 64.6875 C36.42543121 61.13339043 36.42543121 61.13339043 34.6875 59.4375 C34.130625 58.963125 33.57375 58.48875 33 58 C31.8125 54.8125 31.8125 54.8125 31 52 C31.66 52 32.32 52 33 52 C34.2890625 53.75 34.2890625 53.75 35.625 56 C36.07101563 56.7425 36.51703125 57.485 36.9765625 58.25 C37.31429687 58.8275 37.65203125 59.405 38 60 C39.65 58.68 41.3 57.36 43 56 C42.7525 57.175625 42.7525 57.175625 42.5 58.375 C41.53457739 63.44346869 43.47407204 66.67084013 46 71 C47.31023981 72.84990825 48.64511642 74.6825349 50 76.5 C53.76841721 81.57611422 57.34600746 86.40304105 58.5 92.75 C57.81721267 95.82254299 56.43068901 97.06974696 54 99 C53.34 99 52.68 99 52 99 C51.67 99.66 51.34 100.32 51 101 C49.68 101 48.36 101 47 101 C45.52871889 101.00934981 44.05744583 101.02002472 42.58618164 101.03173828 C37.78216989 101.06761188 32.9781782 101.09080995 28.17407227 101.10986328 C26.10146055 101.11994582 24.02886314 101.13361161 21.95629883 101.15087891 C18.961716 101.17515738 15.96731956 101.1864854 12.97265625 101.1953125 C11.58651878 101.21079636 11.58651878 101.21079636 10.17237854 101.22659302 C1.79472278 101.22805165 1.79472278 101.22805165 -2 99 C-4.60144785 95.09782822 -4.29539439 91.80539678 -4.29052734 87.27758789 C-4.29724457 86.38624649 -4.30396179 85.49490509 -4.31088257 84.57655334 C-4.32990639 81.62519788 -4.33378885 78.67406924 -4.3359375 75.72265625 C-4.34236193 73.67386277 -4.34909002 71.62507022 -4.35610962 69.57627869 C-4.36809304 65.27975334 -4.3717893 60.98330846 -4.37060547 56.68676758 C-4.37040212 51.17730619 -4.39771627 45.6683597 -4.43214989 40.15902042 C-4.45436998 35.92713544 -4.45844453 31.69537539 -4.45738602 27.46343803 C-4.4597489 25.43202373 -4.46861086 23.40060634 -4.48405075 21.36924934 C-4.50361359 18.52973311 -4.49791118 15.69134038 -4.48583984 12.85180664 C-4.49707886 12.01063293 -4.50831787 11.16945923 -4.51989746 10.30279541 C-4.47899693 6.52298217 -4.36256297 4.45593257 -1.96963501 1.44676208 C-1.31965546 0.9693306 -0.6696759 0.49189911 0 0 Z " fill="#426A8C" transform="translate(105,74)"/>
<path d="M0 0 C0 0.66 0 1.32 0 2 C-0.78375 2.0825 -1.5675 2.165 -2.375 2.25 C-5.14749104 2.72806339 -5.14749104 2.72806339 -6.3125 5.0625 C-6.539375 5.701875 -6.76625 6.34125 -7 7 C-7 6.34 -7 5.68 -7 5 C-7.66386719 5.08378906 -8.32773438 5.16757812 -9.01171875 5.25390625 C-17.78207381 6.26537786 -17.78207381 6.26537786 -22 5 C-22 5.66 -22 6.32 -22 7 C-23.98 7 -25.96 7 -28 7 C-28 8.98 -28 10.96 -28 13 C-29.32 13 -30.64 13 -32 13 C-32 13.66 -32 14.32 -32 15 C-32.68707031 15.00257812 -33.37414063 15.00515625 -34.08203125 15.0078125 C-36.83664962 15.12603646 -39.32553263 15.31835815 -42 16 C-43.89198799 18.86702744 -43.89198799 18.86702744 -45 22 C-46.2065625 22.4640625 -46.2065625 22.4640625 -47.4375 22.9375 C-51.34494597 24.55766052 -52.13990729 27.27981457 -54 31 C-54.66 31 -55.32 31 -56 31 C-56 31.66 -56 32.32 -56 33 C-56.99 33.495 -56.99 33.495 -58 34 C-58.94306486 35.81052458 -58.94306486 35.81052458 -59.6875 37.9375 C-59.95949219 38.64777344 -60.23148438 39.35804687 -60.51171875 40.08984375 C-61.2392502 42.06716261 -61.2392502 42.06716261 -60 44 C-60 48.66666667 -60 53.33333333 -60 58 C-60.66 58.66 -61.32 59.32 -62 60 C-61.67 60.99 -61.34 61.98 -61 63 C-61.9375 65.1875 -61.9375 65.1875 -63 67 C-63.33 66.67 -63.66 66.34 -64 66 C-64 69.3 -64 72.6 -64 76 C-65.485 76.495 -65.485 76.495 -67 77 C-67 81.29 -67 85.58 -67 90 C-67.33 90 -67.66 90 -68 90 C-68.57560446 64.09779934 -68.09889789 38.01524367 -49.1953125 18.20703125 C-48.10863281 17.11455078 -48.10863281 17.11455078 -47 16 C-46.22269531 15.17048828 -46.22269531 15.17048828 -45.4296875 14.32421875 C-34.14596892 3.365424 -15.33725723 -2.95982157 0 0 Z " fill="#4CA8C1" transform="translate(92,17)"/>
<path d="M0 0 C4.70243817 3.4966848 7.34825658 8.51635136 10.3515625 13.4765625 C12.03149615 16.23676763 12.03149615 16.23676763 15 19 C17.31 15.7 19.62 12.4 22 9 C22.33 9.99 22.66 10.98 23 12 C21.78515625 14.26171875 21.78515625 14.26171875 20.0625 16.6875 C19.49660156 17.49574219 18.93070313 18.30398437 18.34765625 19.13671875 C17.90292969 19.75160156 17.45820313 20.36648437 17 21 C17.31066406 21.61617187 17.62132812 22.23234375 17.94140625 22.8671875 C18.63829372 24.2712486 19.3047961 25.69087117 19.9375 27.125 C20.99740267 29.32357759 20.99740267 29.32357759 24 31 C24.41939932 34.85847377 24.26568671 37.78033994 22 41 C20.515 41.495 20.515 41.495 19 42 C19.350625 41.278125 19.70125 40.55625 20.0625 39.8125 C21.1770397 36.4688809 21.15668425 35.31582818 20 32 C18.44397268 29.25647814 16.75968031 26.61679397 15 24 C9.84329702 29.81306063 9.84329702 29.81306063 8 37 C7.34 37 6.68 37 6 37 C5.63862158 32.73874615 6.47342123 30.77886307 9 27.375 C11.55571765 24.06685685 11.55571765 24.06685685 12 20 C11.566875 19.566875 11.13375 19.13375 10.6875 18.6875 C7.71549056 15.71549056 6.31263593 11.9379078 5 8 C4.34 8 3.68 8 3 8 C1 5 1 5 1 2 C-0.99954746 1.95745644 -3.00041636 1.95919217 -5 2 C-6.79152376 3.79152376 -6.17162396 6.47526432 -6.20532227 8.89672852 C-6.22526749 10.15796036 -6.24521271 11.4191922 -6.26576233 12.71864319 C-6.28274795 14.10539627 -6.29962671 15.49215066 -6.31640625 16.87890625 C-6.33696926 18.2899589 -6.35796555 19.70100529 -6.37937927 21.11204529 C-6.43466755 24.8323359 -6.48404686 28.55268273 -6.53222656 32.27307129 C-6.58239242 36.06686425 -6.63810408 39.86057523 -6.69335938 43.65429688 C-6.80102351 51.10279523 -6.90244997 58.55136159 -7 66 C-4.69 66.33 -2.38 66.66 0 67 C0 66.34 0 65.68 0 65 C-0.66 64.67 -1.32 64.34 -2 64 C-1.34 63.01 -0.68 62.02 0 61 C0.78375 60.87625 1.5675 60.7525 2.375 60.625 C5.93837036 59.77657849 6.96609088 57.93786873 9 55 C9.66 55.33 10.32 55.66 11 56 C9.45456356 58.32565677 7.89058887 60.63416178 6.3125 62.9375 C5.87744141 63.59685547 5.44238281 64.25621094 4.99414062 64.93554688 C3.00464523 67.80926245 1.68131966 69.67782559 -1.51953125 71.19140625 C-5.09904276 70.91519198 -6.4879317 69.50912522 -9 67 C-9.62145996 64.10948181 -9.62145996 64.10948181 -9.61523438 60.71850586 C-9.6291925 58.81149147 -9.6291925 58.81149147 -9.64343262 56.86595154 C-9.62784744 55.48223761 -9.61126255 54.09853463 -9.59375 52.71484375 C-9.59203851 51.2928528 -9.59210497 49.87085868 -9.59387207 48.4488678 C-9.59221995 45.4720329 -9.57354166 42.49595214 -9.54199219 39.51928711 C-9.50227761 35.70353095 -9.49795144 31.88876054 -9.50545502 28.07283688 C-9.50852397 25.13797471 -9.49640769 22.20333426 -9.47932434 19.26852608 C-9.47229368 17.86152092 -9.46916989 16.45449065 -9.47001648 15.04746819 C-9.46821937 13.08227521 -9.44457703 11.11713874 -9.41992188 9.15209961 C-9.41150269 8.03387314 -9.4030835 6.91564667 -9.39440918 5.76353455 C-9 3 -9 3 -7.65344238 1.14674377 C-4.97703788 -0.70947464 -3.16513771 -0.50642203 0 0 Z " fill="#4A80A3" transform="translate(129,88)"/>
<path d="M0 0 C0.33 0 0.66 0 1 0 C1.73883516 89.35358803 1.73883516 89.35358803 -13.71484375 105.828125 C-14.13894531 106.21484375 -14.56304687 106.6015625 -15 107 C-16.03864166 103.88407501 -16.09036928 102.9737344 -15 100 C-14.01 99.505 -14.01 99.505 -13 99 C-13.495 98.401875 -13.99 97.80375 -14.5 97.1875 C-16 95 -16 95 -16 92 C-13.69 92.33 -11.38 92.66 -9 93 C-8.12132271 89.26562152 -7.91087781 85.83225427 -8 82 C-6.515 81.505 -6.515 81.505 -5 81 C-4.66424944 78.56281065 -4.33130715 76.12529385 -4 73.6875 C-3.90460938 72.99720703 -3.80921875 72.30691406 -3.7109375 71.59570312 C-3.31972558 68.70352927 -3 65.92235023 -3 63 C-2.67 62.34 -2.34 61.68 -2 61 C-1.85421372 58.17332422 -1.76536632 55.3677533 -1.71875 52.5390625 C-1.70034058 51.67928802 -1.68193115 50.81951355 -1.66296387 49.9336853 C-1.60414415 47.16419442 -1.55157517 44.39463457 -1.5 41.625 C-1.23207025 27.7327173 -0.77213405 13.87404942 0 0 Z " fill="#507E9F" transform="translate(240,100)"/>
<path d="M0 0 C0.33 0.66 0.66 1.32 1 2 C0.34 2 -0.32 2 -1 2 C-1.02313322 13.96076485 -1.04092011 25.92152442 -1.05181217 37.88230705 C-1.05703885 43.43570621 -1.06413261 48.9890901 -1.07543945 54.54248047 C-1.08627595 59.89815547 -1.09227846 65.25381577 -1.09487724 70.60950089 C-1.09673011 72.65650794 -1.10034809 74.70351416 -1.10573006 76.75051498 C-1.11295057 79.6095735 -1.11399051 82.4685706 -1.11352539 85.32763672 C-1.11712067 86.18071411 -1.12071594 87.0337915 -1.12442017 87.91271973 C-1.23063695 92.08955104 -1.23063695 92.08955104 0 96 C2.52733235 96.65555119 2.52733235 96.65555119 5 97 C5 97.66 5 98.32 5 99 C2.03 99.495 2.03 99.495 -1 100 C-4.18417695 96.87410414 -4.36211258 94.05073487 -4.41769409 89.70831299 C-4.41319244 88.86871033 -4.4086908 88.02910767 -4.40405273 87.1640625 C-4.41091599 86.27257507 -4.41777924 85.38108765 -4.42485046 84.46258545 C-4.44314796 81.51656151 -4.43927712 78.57106855 -4.43359375 75.625 C-4.43815379 73.57763495 -4.44345883 71.53027144 -4.44947815 69.48291016 C-4.4584148 65.19231954 -4.45597938 60.90191502 -4.44604492 56.61132812 C-4.43454846 51.10971303 -4.45477449 45.6087391 -4.48396206 40.10720825 C-4.50229586 35.8795971 -4.50203733 31.65214044 -4.49632454 27.42449951 C-4.49617101 25.39588521 -4.5022412 23.36726064 -4.51461601 21.33868408 C-4.52947268 18.50402414 -4.51888861 15.67055969 -4.50170898 12.8359375 C-4.51137695 11.99633484 -4.52104492 11.15673218 -4.53100586 10.29168701 C-4.48302899 6.51652419 -4.35967207 4.45190073 -1.96864319 1.44775391 C-1.31899094 0.96999512 -0.66933868 0.49223633 0 0 Z " fill="#4A7D9A" transform="translate(105,74)"/>
<path d="M0 0 C0.33 0 0.66 0 1 0 C1.33 5.28 1.66 10.56 2 16 C2.99 16.33 3.98 16.66 5 17 C5.33 17.99 5.66 18.98 6 20 C5.34 20 4.68 20 4 20 C3.94548286 22.04136395 3.90697515 24.08315856 3.875 26.125 C3.84019531 27.83042969 3.84019531 27.83042969 3.8046875 29.5703125 C4.00348556 33.06120651 4.89091368 35.71002126 6 39 C5.67 39.99 5.34 40.98 5 42 C5.99 42 6.98 42 8 42 C7.79375 42.53625 7.5875 43.0725 7.375 43.625 C6.77060486 47.45283589 8.30277757 50.60555514 10 54 C10.66 54 11.32 54 12 54 C12.31453125 54.79664063 12.6290625 55.59328125 12.953125 56.4140625 C17.03304734 66.62909931 17.03304734 66.62909931 24 75 C21 75 21 75 19.203125 73.453125 C0.27841038 52.10604691 -0.61244716 27.25389849 0 0 Z " fill="#517CA3" transform="translate(24,139)"/>
<path d="M0 0 C0.33 0 0.66 0 1 0 C1 1.65 1 3.3 1 5 C0.01 5.495 0.01 5.495 -1 6 C-1.94306486 7.81052458 -1.94306486 7.81052458 -2.6875 9.9375 C-2.95949219 10.64777344 -3.23148438 11.35804687 -3.51171875 12.08984375 C-4.2392502 14.06716261 -4.2392502 14.06716261 -3 16 C-3 20.66666667 -3 25.33333333 -3 30 C-3.66 30.66 -4.32 31.32 -5 32 C-4.67 32.99 -4.34 33.98 -4 35 C-4.9375 37.1875 -4.9375 37.1875 -6 39 C-6.33 38.67 -6.66 38.34 -7 38 C-7 41.3 -7 44.6 -7 48 C-8.485 48.495 -8.485 48.495 -10 49 C-10 53.29 -10 57.58 -10 62 C-10.33 62 -10.66 62 -11 62 C-11.4729868 40.71559408 -11.71201845 18.57602927 0 0 Z " fill="#509BBE" transform="translate(35,45)"/>
<path d="M0 0 C18.12631929 -0.56546577 37.46897038 -0.26551481 54 8 C54 8.66 54 9.32 54 10 C34.06848416 9.26647975 34.06848416 9.26647975 26 6 C25.34 5.01 24.68 4.02 24 3 C21.71366561 2.52420203 21.71366561 2.52420203 19.0625 2.55859375 C18.08539063 2.53216797 17.10828125 2.50574219 16.1015625 2.47851562 C15.07804688 2.46498047 14.05453125 2.45144531 13 2.4375 C10.979002 2.40313794 8.95812158 2.36057544 6.9375 2.30859375 C6.03902344 2.29626709 5.14054688 2.28394043 4.21484375 2.27124023 C2 2 2 2 0 0 Z " fill="#58A2B8" transform="translate(152,15)"/>
<path d="M0 0 C3.32842723 0.45684295 4.61769564 1.11882002 6.83203125 3.60546875 C9.27570775 6.90830529 11.41224935 10.40145255 13.5390625 13.9140625 C15.21899615 16.67426763 15.21899615 16.67426763 18.1875 19.4375 C20.4975 16.1375 22.8075 12.8375 25.1875 9.4375 C25.5175 10.4275 25.8475 11.4175 26.1875 12.4375 C24.97265625 14.69921875 24.97265625 14.69921875 23.25 17.125 C22.68410156 17.93324219 22.11820313 18.74148437 21.53515625 19.57421875 C21.09042969 20.18910156 20.64570313 20.80398437 20.1875 21.4375 C20.49816406 22.05367187 20.80882812 22.66984375 21.12890625 23.3046875 C21.82579372 24.7087486 22.4922961 26.12837117 23.125 27.5625 C24.18490267 29.76107759 24.18490267 29.76107759 27.1875 31.4375 C27.60689932 35.29597377 27.45318671 38.21783994 25.1875 41.4375 C23.7025 41.9325 23.7025 41.9325 22.1875 42.4375 C22.538125 41.715625 22.88875 40.99375 23.25 40.25 C24.3645397 36.9063809 24.34418425 35.75332818 23.1875 32.4375 C21.63147268 29.69397814 19.94718031 27.05429397 18.1875 24.4375 C13.03079702 30.25056063 13.03079702 30.25056063 11.1875 37.4375 C10.5275 37.4375 9.8675 37.4375 9.1875 37.4375 C8.82612158 33.17624615 9.66092123 31.21636307 12.1875 27.8125 C14.74321765 24.50435685 14.74321765 24.50435685 15.1875 20.4375 C14.754375 20.004375 14.32125 19.57125 13.875 19.125 C10.90299056 16.15299056 9.50013593 12.3754078 8.1875 8.4375 C7.5275 8.4375 6.8675 8.4375 6.1875 8.4375 C4.1875 5.4375 4.1875 5.4375 4.1875 2.4375 C1.35598027 2.01940799 1.35598027 2.01940799 -1.8125 2.4375 C-4.21656384 4.81592577 -4.21656384 4.81592577 -5.8125 7.4375 C-4.75494604 0.73965827 -4.75494604 0.73965827 0 0 Z " fill="#477998" transform="translate(125.8125,87.5625)"/>
<path d="M0 0 C7.69106073 1.30911672 12.77414775 6.10933511 17.66796875 12.01171875 C18.98010107 13.9702975 19.79291688 15.71670299 20.5625 17.9375 C21.39447511 20.30136578 22.24901803 22.57274146 23.25 24.875 C23.4975 25.57625 23.745 26.2775 24 27 C23.67 27.66 23.34 28.32 23 29 C22.34 29 21.68 29 21 29 C21 28.01 21 27.02 21 26 C20.01 26.33 19.02 26.66 18 27 C16.875 22.25 16.875 22.25 18 20 C17.34 20 16.68 20 16 20 C16 17.69 16 15.38 16 13 C14.02 13 12.04 13 10 13 C9.71125 11.865625 9.4225 10.73125 9.125 9.5625 C8.75375 8.386875 8.3825 7.21125 8 6 C7.34 5.67 6.68 5.34 6 5 C6 4.34 6 3.68 6 3 C4.35 3 2.7 3 1 3 C0.67 2.01 0.34 1.02 0 0 Z " fill="#51A4BA" transform="translate(208,27)"/>
<path d="M0 0 C0.57300842 0.16076523 1.14601685 0.32153046 1.73638916 0.48716736 C3.96461839 0.99198411 5.93765725 1.1560605 8.21777344 1.20532227 C9.03832214 1.22526749 9.85887085 1.24521271 10.70428467 1.26576233 C11.58046448 1.28247482 12.45664429 1.29918732 13.359375 1.31640625 C14.71594208 1.3475779 14.71594208 1.3475779 16.09991455 1.37937927 C18.98320055 1.4446594 21.8665761 1.50365952 24.75 1.5625 C26.70704044 1.60570571 28.66407188 1.64932065 30.62109375 1.69335938 C35.4139712 1.80031872 40.20693854 1.90164673 45 2 C41.88341044 4.07772637 41.19031298 4.25146755 37.65209961 4.25878906 C36.7778685 4.26509338 35.90363739 4.27139771 35.00291443 4.27789307 C33.59188194 4.27182037 33.59188194 4.27182037 32.15234375 4.265625 C31.18470596 4.26753845 30.21706818 4.2694519 29.22010803 4.27142334 C27.17497497 4.27278428 25.12983325 4.26909419 23.0847168 4.26074219 C19.94625561 4.25002988 16.80836535 4.2606466 13.66992188 4.2734375 C11.68489456 4.27211612 9.69986761 4.26955416 7.71484375 4.265625 C6.30077492 4.27169769 6.30077492 4.27169769 4.85813904 4.27789307 C3.98706009 4.27158875 3.11598114 4.26528442 2.21850586 4.25878906 C1.06625771 4.25640228 1.06625771 4.25640228 -0.10926819 4.25396729 C-2 4 -2 4 -4 2 C-2.68 2 -1.36 2 0 2 C0 1.34 0 0.68 0 0 Z " fill="#4173A8" transform="translate(110,171)"/>
<path d="M0 0 C0.33 0 0.66 0 1 0 C1 1.65 1 3.3 1 5 C0.01 5.495 0.01 5.495 -1 6 C-9.01636546 23.54864619 -8.77661991 43.08284611 -10 62 C-10.33 62 -10.66 62 -11 62 C-11.4729868 40.71559408 -11.71201845 18.57602927 0 0 Z " fill="#5C97AA" transform="translate(35,45)"/>
<path d="M0 0 C0.99 0.33 1.98 0.66 3 1 C4.00864343 9.64551511 0.91501612 14.99057658 -4 22 C-5.73046875 23.8515625 -5.73046875 23.8515625 -7 25 C-8.03864166 21.88407501 -8.09036928 20.9737344 -7 18 C-6.34 17.67 -5.68 17.34 -5 17 C-5.495 16.401875 -5.99 15.80375 -6.5 15.1875 C-8 13 -8 13 -8 10 C-5.69 10.33 -3.38 10.66 -1 11 C-0.12132271 7.26562152 0.08912219 3.83225427 0 0 Z " fill="#4B76A4" transform="translate(232,182)"/>
<path d="M0 0 C0.8971875 0.5259375 0.8971875 0.5259375 1.8125 1.0625 C4.10813214 2.33304698 4.10813214 2.33304698 7 1 C7.33 2.32 7.66 3.64 8 5 C17.24 5 26.48 5 36 5 C36 5.33 36 5.66 36 6 C24.78 6.33 13.56 6.66 2 7 C2 6.34 2 5.68 2 5 C-2.95 4.67 -7.9 4.34 -13 4 C-13 3.67 -13 3.34 -13 3 C-8.71 3 -4.42 3 0 3 C0 2.01 0 1.02 0 0 Z " fill="#416EA5" transform="translate(104,225)"/>
<path d="M0 0 C2.97 0.33 5.94 0.66 9 1 C9 1.66 9 2.32 9 3 C7.824375 3.12375 7.824375 3.12375 6.625 3.25 C3.85250896 3.72806339 3.85250896 3.72806339 2.6875 6.0625 C2.460625 6.701875 2.23375 7.34125 2 8 C2 7.34 2 6.68 2 6 C1.33613281 6.08378906 0.67226562 6.16757812 -0.01171875 6.25390625 C-8.78207381 7.26537786 -8.78207381 7.26537786 -13 6 C-13 6.66 -13 7.32 -13 8 C-13.99 8 -14.98 8 -16 8 C-16 7.34 -16 6.68 -16 6 C-12.58788584 3.72525723 -10.3431471 3.43370356 -6.3125 2.875 C-5.13300781 2.70742188 -3.95351562 2.53984375 -2.73828125 2.3671875 C-1.83464844 2.24601562 -0.93101563 2.12484375 0 2 C0 1.34 0 0.68 0 0 Z " fill="#4EAAC4" transform="translate(83,16)"/>
<path d="M0 0 C2 1 2 1 3 3 C2.34 3 1.68 3 1 3 C1 5.64 1 8.28 1 11 C1.99 11 2.98 11 4 11 C3.375 13.4375 3.375 13.4375 2 16 C-1.125 16.8125 -1.125 16.8125 -4 17 C-4 16.34 -4 15.68 -4 15 C-4.99 14.67 -5.98 14.34 -7 14 C-6.360625 13.835 -5.72125 13.67 -5.0625 13.5 C-2.86438243 12.22372025 -2.86438243 12.22372025 -2.4765625 10.19140625 C-1.99730934 6.6617715 -1.85480787 4.43557638 -3 1 C-2.01 0.67 -1.02 0.34 0 0 Z " fill="#4780B0" transform="translate(164,160)"/>
<path d="M0 0 C0.33 0 0.66 0 1 0 C1.02505615 0.95890137 1.0501123 1.91780273 1.07592773 2.90576172 C1.1699862 6.45798477 1.27021058 10.01001156 1.37231445 13.56201172 C1.41566926 15.10037653 1.45734395 16.63878963 1.49731445 18.17724609 C1.55500398 20.3865414 1.61870179 22.59559348 1.68359375 24.8046875 C1.70030624 25.49432587 1.71701874 26.18396423 1.73423767 26.89450073 C1.80806995 30.57114264 1.80806995 30.57114264 3 34 C5.52733235 34.65555119 5.52733235 34.65555119 8 35 C8 35.66 8 36.32 8 37 C5.125 37.625 5.125 37.625 2 38 C0 36 0 36 -0.22705078 32.46826172 C-0.22673363 30.95536669 -0.21540633 29.44244912 -0.1953125 27.9296875 C-0.1924826 27.13345978 -0.18965271 26.33723206 -0.18673706 25.51687622 C-0.1755264 22.96943237 -0.15042062 20.42233789 -0.125 17.875 C-0.11497133 16.14974465 -0.10584528 14.42448381 -0.09765625 12.69921875 C-0.07558422 8.46601086 -0.04104867 4.2330647 0 0 Z " fill="#476B86" transform="translate(102,136)"/>
<path d="M0 0 C-2.98436429 1.98957619 -4.32354449 2.35358286 -7.75 2.875 C-11.16012042 3.49367207 -13.75121163 4.21816467 -16.6875 6.0625 C-20.43054961 8.25183091 -22.75226013 8.65324573 -27 9 C-20.51846591 1.8232856 -9.27254956 -0.38635623 0 0 Z " fill="#5FA0B4" transform="translate(83,17)"/>
<path d="M0 0 C0.66 0 1.32 0 2 0 C3.2890625 1.75 3.2890625 1.75 4.625 4 C5.07101563 4.7425 5.51703125 5.485 5.9765625 6.25 C6.31429687 6.8275 6.65203125 7.405 7 8 C8.65 6.68 10.3 5.36 12 4 C11.835 4.78375 11.67 5.5675 11.5 6.375 C10.9376293 8.88208039 10.9376293 8.88208039 11 11 C11 11.99 11 12.98 11 14 C10.34 14 9.68 14 9 14 C9 13.34 9 12.68 9 12 C7.35 13.32 5.7 14.64 4 16 C4.226875 14.906875 4.45375 13.81375 4.6875 12.6875 C5.42543121 9.13339043 5.42543121 9.13339043 3.6875 7.4375 C3.130625 6.963125 2.57375 6.48875 2 6 C0.8125 2.8125 0.8125 2.8125 0 0 Z " fill="#457898" transform="translate(136,126)"/>
<path d="M0 0 C0 0.66 0 1.32 0 2 C-6.23136225 7.14087385 -12.14193144 6.08786944 -19.74609375 5.359375 C-20.81988281 5.24078125 -21.89367187 5.1221875 -23 5 C-23 4.67 -23 4.34 -23 4 C-22.38511719 3.95101562 -21.77023438 3.90203125 -21.13671875 3.8515625 C-20.32847656 3.77679688 -19.52023438 3.70203125 -18.6875 3.625 C-17.88699219 3.55539063 -17.08648437 3.48578125 -16.26171875 3.4140625 C-13.72775559 3.10435574 -13.72775559 3.10435574 -11 1 C-10.38125 1.165 -9.7625 1.33 -9.125 1.5 C-5.62156032 2.32433875 -3.45737811 0 0 0 Z " fill="#4570AB" transform="translate(192,224)"/>
<path d="M0 0 C3.68954546 1.22984849 3.35620309 1.71240619 5 5 C5.804375 5.804375 6.60875 6.60875 7.4375 7.4375 C9.85451906 9.85451906 11.3020811 12.06723098 13 15 C14.58245275 16.75149165 14.58245275 16.75149165 16 18 C13 18 13 18 11.1328125 16.34765625 C6.62419042 11.21624785 3.01652915 6.13457611 0 0 Z " fill="#547593" transform="translate(32,196)"/>
<path d="M0 0 C0.33 0.66 0.66 1.32 1 2 C0.34 2 -0.32 2 -1 2 C-1 2.66 -1 3.32 -1 4 C-1.598125 4.226875 -2.19625 4.45375 -2.8125 4.6875 C-5.18844156 5.876424 -5.18844156 5.876424 -6.4375 8.4375 C-8.2812958 11.46132511 -9.9577701 12.26158292 -13 14 C-14.7041054 15.62836738 -16.38025441 17.28769752 -18 19 C-16.58419794 14.44625068 -14.04489128 11.62092411 -10.6875 8.375 C-10.21376953 7.89804687 -9.74003906 7.42109375 -9.25195312 6.9296875 C-6.38844138 4.10926553 -3.53039845 1.91631828 0 0 Z " fill="#5D9CAA" transform="translate(54,26)"/>
<path d="M0 0 C4.84659077 0.59104765 8.60748167 1.97944157 13 4 C13 4.66 13 5.32 13 6 C9.7 5.67 6.4 5.34 3 5 C3 4.34 3 3.68 3 3 C2.01 2.67 1.02 2.34 0 2 C0 1.34 0 0.68 0 0 Z " fill="#59A2B5" transform="translate(193,19)"/>
<path d="M0 0 C0.33 0.66 0.66 1.32 1 2 C2.485 2.2475 2.485 2.2475 4 2.5 C5.485 2.7475 5.485 2.7475 7 3 C7.33 3.66 7.66 4.32 8 5 C7.34 5 6.68 5 6 5 C6 5.66 6 6.32 6 7 C4.5164999 6.57742724 3.03823576 6.13643678 1.5625 5.6875 C0.73878906 5.44386719 -0.08492187 5.20023438 -0.93359375 4.94921875 C-1.61550781 4.63597656 -2.29742187 4.32273437 -3 4 C-3.33 3.01 -3.66 2.02 -4 1 C-2.68 1.33 -1.36 1.66 0 2 C0 1.34 0 0.68 0 0 Z " fill="#4EABC7" transform="translate(180,16)"/>
<path d="M0 0 C1.9375 0.8125 1.9375 0.8125 4 2 C4.33 2.99 4.66 3.98 5 5 C4.67 5.66 4.34 6.32 4 7 C3.34 7 2.68 7 2 7 C2 6.34 2 5.68 2 5 C-2.95 4.67 -7.9 4.34 -13 4 C-13 3.67 -13 3.34 -13 3 C-8.71 3 -4.42 3 0 3 C0 2.01 0 1.02 0 0 Z " fill="#4972AB" transform="translate(104,225)"/>
<path d="M0 0 C2.0625 2.25 2.0625 2.25 4 5 C3.75 7.3125 3.75 7.3125 3 9 C2.34 9 1.68 9 1 9 C-1.74375671 6.04518508 -2 5.22528092 -2 1 C-1.34 0.67 -0.68 0.34 0 0 Z " fill="#4687B3" transform="translate(155,145)"/>
<path d="M0 0 C1.65 0 3.3 0 5 0 C3.6875 1.5 3.6875 1.5 2 3 C1.01 3 0.02 3 -1 3 C-1.33 3.99 -1.66 4.98 -2 6 C-3.65 6.33 -5.3 6.66 -7 7 C-7.33 6.34 -7.66 5.68 -8 5 C-7.34 5 -6.68 5 -6 5 C-5.67 4.01 -5.34 3.02 -5 2 C-3.35 2 -1.7 2 0 2 C0 1.34 0 0.68 0 0 Z " fill="#4D9CBB" transform="translate(104,72)"/>
<path d="M0 0 C2.64 0.33 5.28 0.66 8 1 C8 1.66 8 2.32 8 3 C6.66666667 4.33333333 5.33333333 5.66666667 4 7 C2 5.1875 2 5.1875 0 3 C0 2.01 0 1.02 0 0 Z " fill="#467BAE" transform="translate(224,192)"/>
<path d="M0 0 C0.66 0.33 1.32 0.66 2 1 C2.33 1.99 2.66 2.98 3 4 C3.66 4.33 4.32 4.66 5 5 C2.36 5.99 -0.28 6.98 -3 8 C-1.125 1.125 -1.125 1.125 0 0 Z " fill="#4EA3BF" transform="translate(34,50)"/>
<path d="M0 0 C2.625 0.9375 2.625 0.9375 5 2 C2.53721199 4.46278801 0.29323018 4.99771255 -3 6 C-2.625 3.5625 -2.625 3.5625 -2 1 C-1.34 0.67 -0.68 0.34 0 0 Z " fill="#4875B0" transform="translate(203,217)"/>
<path d="M0 0 C1.0625 1.8125 1.0625 1.8125 2 4 C1.67 4.99 1.34 5.98 1 7 C1.66 7.33 2.32 7.66 3 8 C3 8.99 3 9.98 3 11 C2.01 11 1.02 11 0 11 C-0.88935377 7.696686 -1.46274105 4.37705625 -2 1 C-1.34 0.67 -0.68 0.34 0 0 Z " fill="#4581B1" transform="translate(29,169)"/>
<path d="M0 0 C1.18771723 3.42943519 0.80226223 5.37784675 -0.4375 8.75 C-0.86869141 9.94882813 -0.86869141 9.94882813 -1.30859375 11.171875 C-1.65083984 12.07679688 -1.65083984 12.07679688 -2 13 C-2.33 13 -2.66 13 -3 13 C-2.67 9.7 -2.34 6.4 -2 3 C-1.34 3 -0.68 3 0 3 C0 2.01 0 1.02 0 0 Z " fill="#57799B" transform="translate(237,178)"/>
<path d="M0 0 C0.99 0 1.98 0 3 0 C3.17615457 3.87540045 3.28341107 6.75515269 1 10 C0.01 10.33 -0.98 10.66 -2 11 C-1.67 10.29875 -1.34 9.5975 -1 8.875 C0.09044562 5.73996884 0.15322643 3.29436818 0 0 Z " fill="#4F819C" transform="translate(150,119)"/>
<path d="M0 0 C2.64 0.33 5.28 0.66 8 1 C8 1.66 8 2.32 8 3 C6.02 3.33 4.04 3.66 2 4 C1.34 2.68 0.68 1.36 0 0 Z " fill="#477093" transform="translate(102,170)"/>
<path d="M0 0 C-0.99 0 -1.98 0 -3 0 C-3 0.66 -3 1.32 -3 2 C-4.32 2 -5.64 2 -7 2 C-7.33 1.01 -7.66 0.02 -8 -1 C-4.59745511 -2.2151946 -3.06748874 -1.86240388 0 0 Z " fill="#4471A7" transform="translate(162,229)"/>
<path d="M0 0 C1.98 0.66 3.96 1.32 6 2 C5.67 2.99 5.34 3.98 5 5 C2 4 2 4 0.8125 1.9375 C0.544375 1.298125 0.27625 0.65875 0 0 Z " fill="#4B98C2" transform="translate(125,91)"/>
</svg>
